<svg width="100" height="200" viewBox="0 0 100 200" fill="none" xmlns="http://www.w3.org/2000/svg">
<circle cx="2.5" cy="2.5" r="2.5" fill="#E2E8EF"/>
<circle cx="13.5" cy="2.5" r="2.5" fill="#E2E8EF"/>
<circle cx="24.5" cy="2.5" r="2.5" fill="#E2E8EF"/>
<circle cx="35.5" cy="2.5" r="2.5" fill="#E2E8EF"/>
<circle cx="46.5" cy="2.5" r="2.5" fill="#E2E8EF"/>
<circle cx="57.5" cy="2.5" r="2.5" fill="#E2E8EF"/>
<circle cx="68.5" cy="2.5" r="2.5" fill="#E2E8EF"/>
<circle cx="79.5" cy="2.5" r="2.5" fill="#E2E8EF"/>
<circle cx="90.5" cy="2.5" r="2.5" fill="#E2E8EF"/>
<circle cx="2.5" cy="13.5" r="2.5" fill="#E2E8EF"/>
<circle cx="13.5" cy="13.5" r="2.5" fill="#E2E8EF"/>
<circle cx="24.5" cy="13.5" r="2.5" fill="#E2E8EF"/>
<circle cx="35.5" cy="13.5" r="2.5" fill="#E2E8EF"/>
<circle cx="46.5" cy="13.5" r="2.5" fill="#E2E8EF"/>
<circle cx="57.5" cy="13.5" r="2.5" fill="#E2E8EF"/>
<circle cx="68.5" cy="13.5" r="2.5" fill="#E2E8EF"/>
<circle cx="79.5" cy="13.5" r="2.5" fill="#E2E8EF"/>
<circle cx="90.5" cy="13.5" r="2.5" fill="#E2E8EF"/>
<circle cx="2.5" cy="24.5" r="2.5" fill="#E2E8EF"/>
<circle cx="13.5" cy="24.5" r="2.5" fill="#E2E8EF"/>
<circle cx="24.5" cy="24.5" r="2.5" fill="#E2E8EF"/>
<circle cx="35.5" cy="24.5" r="2.5" fill="#E2E8EF"/>
<circle cx="46.5" cy="24.5" r="2.5" fill="#E2E8EF"/>
<circle cx="57.5" cy="24.5" r="2.5" fill="#E2E8EF"/>
<circle cx="68.5" cy="24.5" r="2.5" fill="#E2E8EF"/>
<circle cx="79.5" cy="24.5" r="2.5" fill="#E2E8EF"/>
<circle cx="90.5" cy="24.5" r="2.5" fill="#E2E8EF"/>
<circle cx="2.5" cy="35.5" r="2.5" fill="#E2E8EF"/>
<circle cx="13.5" cy="35.5" r="2.5" fill="#E2E8EF"/>
<circle cx="24.5" cy="35.5" r="2.5" fill="#E2E8EF"/>
<circle cx="35.5" cy="35.5" r="2.5" fill="#E2E8EF"/>
<circle cx="46.5" cy="35.5" r="2.5" fill="#E2E8EF"/>
<circle cx="57.5" cy="35.5" r="2.5" fill="#E2E8EF"/>
<circle cx="68.5" cy="35.5" r="2.5" fill="#E2E8EF"/>
<circle cx="79.5" cy="35.5" r="2.5" fill="#E2E8EF"/>
<circle cx="90.5" cy="35.5" r="2.5" fill="#E2E8EF"/>
<circle cx="2.5" cy="46.5" r="2.5" fill="#E2E8EF"/>
<circle cx="13.5" cy="46.5" r="2.5" fill="#E2E8EF"/>
<circle cx="24.5" cy="46.5" r="2.5" fill="#E2E8EF"/>
<circle cx="35.5" cy="46.5" r="2.5" fill="#E2E8EF"/>
<circle cx="46.5" cy="46.5" r="2.5" fill="#E2E8EF"/>
<circle cx="57.5" cy="46.5" r="2.5" fill="#E2E8EF"/>
<circle cx="68.5" cy="46.5" r="2.5" fill="#E2E8EF"/>
<circle cx="79.5" cy="46.5" r="2.5" fill="#E2E8EF"/>
<circle cx="90.5" cy="46.5" r="2.5" fill="#E2E8EF"/>
<circle cx="2.5" cy="57.5" r="2.5" fill="#E2E8EF"/>
<circle cx="13.5" cy="57.5" r="2.5" fill="#E2E8EF"/>
<circle cx="24.5" cy="57.5" r="2.5" fill="#E2E8EF"/>
<circle cx="35.5" cy="57.5" r="2.5" fill="#E2E8EF"/>
<circle cx="46.5" cy="57.5" r="2.5" fill="#E2E8EF"/>
<circle cx="57.5" cy="57.5" r="2.5" fill="#E2E8EF"/>
<circle cx="68.5" cy="57.5" r="2.5" fill="#E2E8EF"/>
<circle cx="79.5" cy="57.5" r="2.5" fill="#E2E8EF"/>
<circle cx="90.5" cy="57.5" r="2.5" fill="#E2E8EF"/>
<circle cx="2.5" cy="68.5" r="2.5" fill="#E2E8EF"/>
<circle cx="13.5" cy="68.5" r="2.5" fill="#E2E8EF"/>
<circle cx="24.5" cy="68.5" r="2.5" fill="#E2E8EF"/>
<circle cx="35.5" cy="68.5" r="2.5" fill="#E2E8EF"/>
<circle cx="46.5" cy="68.5" r="2.5" fill="#E2E8EF"/>
<circle cx="57.5" cy="68.5" r="2.5" fill="#E2E8EF"/>
<circle cx="68.5" cy="68.5" r="2.5" fill="#E2E8EF"/>
<circle cx="79.5" cy="68.5" r="2.5" fill="#E2E8EF"/>
<circle cx="90.5" cy="68.5" r="2.5" fill="#E2E8EF"/>
<circle cx="2.5" cy="79.5" r="2.5" fill="#E2E8EF"/>
<circle cx="13.5" cy="79.5" r="2.5" fill="#E2E8EF"/>
<circle cx="24.5" cy="79.5" r="2.5" fill="#E2E8EF"/>
<circle cx="35.5" cy="79.5" r="2.5" fill="#E2E8EF"/>
<circle cx="46.5" cy="79.5" r="2.5" fill="#E2E8EF"/>
<circle cx="57.5" cy="79.5" r="2.5" fill="#E2E8EF"/>
<circle cx="68.5" cy="79.5" r="2.5" fill="#E2E8EF"/>
<circle cx="79.5" cy="79.5" r="2.5" fill="#E2E8EF"/>
<circle cx="90.5" cy="79.5" r="2.5" fill="#E2E8EF"/>
<circle cx="2.5" cy="90.5" r="2.5" fill="#E2E8EF"/>
<circle cx="13.5" cy="90.5" r="2.5" fill="#E2E8EF"/>
<circle cx="24.5" cy="90.5" r="2.5" fill="#E2E8EF"/>
<circle cx="35.5" cy="90.5" r="2.5" fill="#E2E8EF"/>
<circle cx="46.5" cy="90.5" r="2.5" fill="#E2E8EF"/>
<circle cx="57.5" cy="90.5" r="2.5" fill="#E2E8EF"/>
<circle cx="68.5" cy="90.5" r="2.5" fill="#E2E8EF"/>
<circle cx="79.5" cy="90.5" r="2.5" fill="#E2E8EF"/>
<circle cx="90.5" cy="90.5" r="2.5" fill="#E2E8EF"/>
<circle cx="2.5" cy="101.5" r="2.5" fill="#E2E8EF"/>
<circle cx="13.5" cy="101.5" r="2.5" fill="#E2E8EF"/>
<circle cx="24.5" cy="101.5" r="2.5" fill="#E2E8EF"/>
<circle cx="35.5" cy="101.5" r="2.5" fill="#E2E8EF"/>
<circle cx="46.5" cy="101.5" r="2.5" fill="#E2E8EF"/>
<circle cx="57.5" cy="101.5" r="2.5" fill="#E2E8EF"/>
<circle cx="68.5" cy="101.5" r="2.5" fill="#E2E8EF"/>
<circle cx="79.5" cy="101.5" r="2.5" fill="#E2E8EF"/>
<circle cx="90.5" cy="101.5" r="2.5" fill="#E2E8EF"/>
<circle cx="2.5" cy="112.5" r="2.5" fill="#E2E8EF"/>
<circle cx="13.5" cy="112.5" r="2.5" fill="#E2E8EF"/>
<circle cx="24.5" cy="112.5" r="2.5" fill="#E2E8EF"/>
<circle cx="35.5" cy="112.5" r="2.5" fill="#E2E8EF"/>
<circle cx="46.5" cy="112.5" r="2.5" fill="#E2E8EF"/>
<circle cx="57.5" cy="112.5" r="2.5" fill="#E2E8EF"/>
<circle cx="68.5" cy="112.5" r="2.5" fill="#E2E8EF"/>
<circle cx="79.5" cy="112.5" r="2.5" fill="#E2E8EF"/>
<circle cx="90.5" cy="112.5" r="2.5" fill="#E2E8EF"/>
<circle cx="2.5" cy="123.5" r="2.5" fill="#E2E8EF"/>
<circle cx="13.5" cy="123.5" r="2.5" fill="#E2E8EF"/>
<circle cx="24.5" cy="123.5" r="2.5" fill="#E2E8EF"/>
<circle cx="35.5" cy="123.5" r="2.5" fill="#E2E8EF"/>
<circle cx="46.5" cy="123.5" r="2.5" fill="#E2E8EF"/>
<circle cx="57.5" cy="123.5" r="2.5" fill="#E2E8EF"/>
<circle cx="68.5" cy="123.5" r="2.5" fill="#E2E8EF"/>
<circle cx="79.5" cy="123.5" r="2.5" fill="#E2E8EF"/>
<circle cx="90.5" cy="123.5" r="2.5" fill="#E2E8EF"/>
<circle cx="2.5" cy="134.5" r="2.5" fill="#E2E8EF"/>
<circle cx="13.5" cy="134.5" r="2.5" fill="#E2E8EF"/>
<circle cx="24.5" cy="134.5" r="2.5" fill="#E2E8EF"/>
<circle cx="35.5" cy="134.5" r="2.5" fill="#E2E8EF"/>
<circle cx="46.5" cy="134.5" r="2.5" fill="#E2E8EF"/>
<circle cx="57.5" cy="134.5" r="2.5" fill="#E2E8EF"/>
<circle cx="68.5" cy="134.5" r="2.5" fill="#E2E8EF"/>
<circle cx="79.5" cy="134.5" r="2.5" fill="#E2E8EF"/>
<circle cx="90.5" cy="134.5" r="2.5" fill="#E2E8EF"/>
<circle cx="2.5" cy="145.5" r="2.5" fill="#E2E8EF"/>
<circle cx="13.5" cy="145.5" r="2.5" fill="#E2E8EF"/>
<circle cx="24.5" cy="145.5" r="2.5" fill="#E2E8EF"/>
<circle cx="35.5" cy="145.5" r="2.5" fill="#E2E8EF"/>
<circle cx="46.5" cy="145.5" r="2.5" fill="#E2E8EF"/>
<circle cx="57.5" cy="145.5" r="2.5" fill="#E2E8EF"/>
<circle cx="68.5" cy="145.5" r="2.5" fill="#E2E8EF"/>
<circle cx="79.5" cy="145.5" r="2.5" fill="#E2E8EF"/>
<circle cx="90.5" cy="145.5" r="2.5" fill="#E2E8EF"/>
<circle cx="2.5" cy="156.5" r="2.5" fill="#E2E8EF"/>
<circle cx="13.5" cy="156.5" r="2.5" fill="#E2E8EF"/>
<circle cx="24.5" cy="156.5" r="2.5" fill="#E2E8EF"/>
<circle cx="35.5" cy="156.5" r="2.5" fill="#E2E8EF"/>
<circle cx="46.5" cy="156.5" r="2.5" fill="#E2E8EF"/>
<circle cx="57.5" cy="156.5" r="2.5" fill="#E2E8EF"/>
<circle cx="68.5" cy="156.5" r="2.5" fill="#E2E8EF"/>
<circle cx="79.5" cy="156.5" r="2.5" fill="#E2E8EF"/>
<circle cx="90.5" cy="156.5" r="2.5" fill="#E2E8EF"/>
<circle cx="2.5" cy="167.5" r="2.5" fill="#E2E8EF"/>
<circle cx="13.5" cy="167.5" r="2.5" fill="#E2E8EF"/>
<circle cx="24.5" cy="167.5" r="2.5" fill="#E2E8EF"/>
<circle cx="35.5" cy="167.5" r="2.5" fill="#E2E8EF"/>
<circle cx="46.5" cy="167.5" r="2.5" fill="#E2E8EF"/>
<circle cx="57.5" cy="167.5" r="2.5" fill="#E2E8EF"/>
<circle cx="68.5" cy="167.5" r="2.5" fill="#E2E8EF"/>
<circle cx="79.5" cy="167.5" r="2.5" fill="#E2E8EF"/>
<circle cx="90.5" cy="167.5" r="2.5" fill="#E2E8EF"/>
<circle cx="2.5" cy="178.5" r="2.5" fill="#E2E8EF"/>
<circle cx="13.5" cy="178.5" r="2.5" fill="#E2E8EF"/>
<circle cx="24.5" cy="178.5" r="2.5" fill="#E2E8EF"/>
<circle cx="35.5" cy="178.5" r="2.5" fill="#E2E8EF"/>
<circle cx="46.5" cy="178.5" r="2.5" fill="#E2E8EF"/>
<circle cx="57.5" cy="178.5" r="2.5" fill="#E2E8EF"/>
<circle cx="68.5" cy="178.5" r="2.5" fill="#E2E8EF"/>
<circle cx="79.5" cy="178.5" r="2.5" fill="#E2E8EF"/>
<circle cx="90.5" cy="178.5" r="2.5" fill="#E2E8EF"/>
<circle cx="2.5" cy="189.5" r="2.5" fill="#E2E8EF"/>
<circle cx="13.5" cy="189.5" r="2.5" fill="#E2E8EF"/>
<circle cx="24.5" cy="189.5" r="2.5" fill="#E2E8EF"/>
<circle cx="35.5" cy="189.5" r="2.5" fill="#E2E8EF"/>
<circle cx="46.5" cy="189.5" r="2.5" fill="#E2E8EF"/>
<circle cx="57.5" cy="189.5" r="2.5" fill="#E2E8EF"/>
<circle cx="68.5" cy="189.5" r="2.5" fill="#E2E8EF"/>
<circle cx="79.5" cy="189.5" r="2.5" fill="#E2E8EF"/>
<circle cx="90.5" cy="189.5" r="2.5" fill="#E2E8EF"/>
</svg>
